HIERARCHY
ROOT Hips
{
	OFFSET 0.000000 0.000000 0.000000 
	CHANNELS 6 Xposition Yposition Zposition Yrotation Zrotation Xrotation 
	JOINT Lumbar
	{
		OFFSET 0.000000 0.000000 0.000000 
		CHANNELS 3 Zrotation Xrotation Yrotation
		JOINT Neck
		{
			OFFSET 0.000000 0.445665 0.000000 
			CHANNELS 3 Zrotation Xrotation Yrotation
			End Site
			{
				OFFSET 0.000000 0.227535 0.000000 
			}
		}
		JOINT RightShoulder
		{
			OFFSET 0.019635 0.377685 0.194865 
			CHANNELS 3 Zrotation Xrotation Yrotation
			JOINT RightElbow
			{
				OFFSET 0.000000 -0.243375 0.000000 
				CHANNELS 2 Zrotation Yrotation
				JOINT RightWrist
				{
					OFFSET 0.000000 -0.264825 0.000000 
					CHANNELS 2 Zrotation Xrotation
					End Site
					{
						OFFSET 0.006600 -0.176220 0.000990 
					}
				}
			}
		}
		JOINT LeftShoulder
		{
			OFFSET 0.019635 0.377685 -0.194865 
			CHANNELS 3 Zrotation Xrotation Yrotation
			JOINT LeftElbow
			{
				OFFSET 0.000000 -0.243375 0.000000 
				CHANNELS 2 Zrotation Yrotation
				JOINT LeftWrist
				{
					OFFSET 0.000000 -0.264825 0.000000 
					CHANNELS 2 Zrotation Xrotation
					End Site
					{
						OFFSET 0.006600 -0.176220 -0.000990 
					}
				}
			}
		}
	}
	JOINT RightHip
	{
		OFFSET 0.052140 -0.069960 0.075570 
		CHANNELS 3 Zrotation Xrotation Yrotation
		JOINT RightKnee
		{
			OFFSET 0.000000 -0.402270 0.000000 
			CHANNELS 1 Zrotation
			JOINT RightAnkle
			{
				OFFSET 0.000000 -0.404085 0.000000 
				CHANNELS 3 Zrotation Xrotation Yrotation
				End Site
				{
					OFFSET 0.204105 -0.089430 0.008415 
				}
			}
		}
	}
	JOINT LeftHip
	{
		OFFSET 0.052140 -0.069960 -0.075570 
		CHANNELS 3 Zrotation Xrotation Yrotation
		JOINT LeftKnee
		{
			OFFSET 0.000000 -0.402270 0.000000 
			CHANNELS 1 Zrotation
			JOINT LeftAnkle
			{
				OFFSET 0.000000 -0.404085 0.000000 
				CHANNELS 3 Zrotation Xrotation Yrotation
				End Site
				{
					OFFSET 0.204105 -0.089430 -0.008415 
				}
			}
		}
	}
}
MOTION
Frames: 28
Frame Time: 0.02
0.60263 0.0526 0.09552 184.64451 0 -0.91519 60.4726 4.32698 17.11992 -72.16069 36.2843 5.44934 0.56638 -17.76744 -32.36896 134.33649 87.28018 -41.61976 -4.23778 2.09036 -4.78002 3.93588 120.70785 -95.63236 -55.37897 4.79551 120.12668 12.8659 -27.00516 -68.05293 -25.12689 -3.04718 6.34191 92.08176 -9.72893 -16.44838 -11.38355 -27.28106 2.4514 -1.47874
0.60287 0.05277 0.09576 184.61998 0 -1.0286 60.47808 3.8564 15.73277 -71.90615 34.93606 5.05458 0.53929 -18.16047 -31.77711 134.64075 84.25154 -39.56517 -3.92197 1.23209 -4.7922 4.07723 121.4964 -94.46944 -54.95419 4.7065 119.97403 12.86812 -27.07946 -67.8518 -25.2927 -3.05133 6.22558 92.09929 -9.69786 -16.47623 -11.449 -27.14584 2.44165 -1.35709
0.60308 0.05296 0.0959 184.60792 0 -1.10813 60.47474 3.32549 13.92379 -71.53301 33.07373 4.66113 0.42905 -18.46762 -31.04277 134.73208 81.84541 -37.96116 -3.63491 0.27371 -4.72252 4.19086 122.23986 -93.34708 -54.62072 4.62259 119.82459 12.87167 -27.16689 -67.60163 -25.52214 -3.0678 6.1318 92.13627 -9.66891 -16.47493 -11.55864 -26.95204 2.42083 -1.15889
0.6033 0.05313 0.09609 184.5893 0 -1.20071 60.47575 2.82286 12.36014 -71.20239 31.49203 4.25499 0.34892 -18.81156 -30.37815 134.92219 79.19642 -36.15474 -3.33769 -0.62975 -4.69164 4.31589 122.98484 -92.20846 -54.2475 4.53649 119.6755 12.87451 -27.24648 -67.37857 -25.71719 -3.07813 6.02782 92.16271 -9.63752 -16.48106 -11.64408 -26.78822 2.40469 -0.9983
0.60352 0.05332 0.09626 184.57523 0 -1.30265 60.4759 2.31524 10.59406 -70.9258 29.73398 3.89385 0.31112 -19.16414 -29.6942 135.11231 76.33783 -34.31417 -3.0248 -1.5652 -4.65507 4.45145 123.81158 -91.05742 -53.86051 4.4497 119.51773 12.87781 -27.33291 -67.13385 -25.93559 -3.09071 5.92352 92.19513 -9.61194 -16.50857 -11.74434 -26.6103 2.39029 -0.82669
0.60375 0.05349 0.09646 184.5546 0 -1.37778 60.47551 1.80414 9.13655 -70.50497 28.21028 3.44255 0.15962 -19.47884 -29.01647 135.24864 74.08356 -32.65659 -2.75335 -2.46393 -4.61098 4.55697 124.45685 -89.94056 -53.52581 4.3654 119.37911 12.88046 -27.40845 -66.92306 -26.11952 -3.10131 5.82441 92.22004 -9.57527 -16.48678 -11.8252 -26.44801 2.36956 -0.65984
0.604 0.05356 0.09677 184.50955 0 -1.38046 60.47576 1.29937 8.68082 -69.72996 27.48929 2.73079 -0.2616 -19.70696 -28.38592 135.28788 73.29407 -31.45094 -2.58197 -3.19769 -4.55997 4.57909 124.61032 -88.94236 -53.31983 4.28947 119.29375 12.88113 -27.45295 -66.81818 -26.20356 -3.10625 5.74505 92.22123 -9.50312 -16.32442 -11.84191 -26.34066 2.33298 -0.52088
0.60427 0.05361 0.0971 184.45778 0 -1.35837 60.47568 0.79341 8.53937 -68.81043 27.01372 1.93132 -0.80007 -19.90018 -27.76733 135.27947 73.10657 -30.40863 -2.45364 -3.89876 -4.50503 4.57241 124.58326 -87.97333 -53.16307 4.2155 119.22747 12.88108 -27.48596 -66.74919 -26.24906 -3.10834 5.66834 92.21411 -9.42044 -16.11595 -11.83795 -26.25148 2.28995 -0.38989
0.60452 0.05369 0.09741 184.41125 0 -1.35225 60.47567 0.28715 8.21987 -67.94652 26.40325 1.17967 -1.30149 -20.11197 -27.14598 135.29175 72.68172 -29.25698 -2.31005 -4.64124 -4.45587 4.58279 124.63915 -86.96732 -52.98043 4.13876 119.15187 12.88126 -27.5227 -66.66389 -26.30481 -3.10984 5.58324 92.20973 -9.3456 -15.93642 -11.84364 -26.15565 2.25139 -0.25775
0.60479 0.05369 0.09778 184.35652 0 -1.32584 60.4757 -0.21863 8.03197 -67.12103 25.87318 0.3932 -1.73661 -20.31097 -26.50777 135.29983 72.12263 -28.26399 -2.14683 -5.27574 -4.3875 4.57557 124.68774 -86.05596 -52.81571 4.06974 119.0792 12.88188 -27.5655 -66.57719 -26.39228 -3.11947 5.5288 92.2101 -9.25842 -15.72194 -11.84961 -26.05111 2.2086 -0.11269
0.60503 0.05386 0.09803 184.31638 0 -1.33526 60.47568 -0.72372 7.65351 -66.18273 25.24137 -0.34011 -2.33723 -20.52735 -25.91018 135.30934 71.98108 -26.97954 -2.03738 -6.1252 -4.35866 4.59846 124.71166 -84.9624 -52.62415 3.98552 119.0048 12.88143 -27.59365 -66.50218 -26.40515 -3.11161 5.41138 92.1987 -9.19382 -15.5699 -11.84969 -25.96963 2.1699 0.00278
0.60513 0.05457 0.09792 184.32453 0 -1.45845 60.47569 -1.23632 6.64342 -64.96871 24.26338 -0.91692 -3.3608 -20.8183 -25.41553 135.32386 72.81765 -24.79856 -2.03997 -7.58311 -4.44624 4.71259 124.69062 -83.28666 -52.34637 3.85392 118.922 12.87784 -27.57644 -66.45442 -26.20849 -3.05381 5.11481 92.15387 -9.19914 -15.59979 -11.83687 -25.94909 2.17467 0.03634
0.60519 0.05547 0.09769 184.34641 0 -1.61706 60.47569 -1.74597 5.43824 -63.64697 23.17814 -1.43466 -4.54731 -21.12479 -24.96322 135.3442 74.05473 -22.32655 -2.09989 -9.25614 -4.5734 4.85834 124.65489 -81.44056 -52.03929 3.70736 118.83662 12.87325 -27.54617 -66.4168 -25.94006 -2.97887 4.7555 92.09792 -9.22661 -15.69444 -11.81892 -25.95111 2.17959 0.04035
0.60528 0.05625 0.09753 184.3577 0 -1.75396 60.47569 -2.25042 4.34299 -62.37445 22.14777 -1.97214 -5.66253 -21.41303 -24.4964 135.37019 75.1248 -20.01897 -2.1504 -10.82646 -4.67822 4.9886 124.64016 -79.71847 -51.74545 3.57146 118.75173 12.86933 -27.527 -66.37229 -25.71281 -2.91329 4.4278 92.0489 -9.24061 -15.761 -11.80426 -25.94199 2.16257 0.05903
0.60532 0.05715 0.09733 184.38692 0 -1.91386 60.47569 -2.78293 3.16808 -61.09436 21.09927 -2.54407 -6.77095 -21.7481 -24.01001 135.36049 76.15717 -17.57978 -2.13212 -12.41902 -4.79955 5.121 124.55959 -77.79762 -51.45438 3.42131 118.67034 12.86447 -27.48603 -66.33847 -25.44858 -2.84108 4.08712 91.99171 -9.26855 -15.82097 -11.78496 -25.93722 2.23164 0.07254
0.60545 0.05786 0.09719 184.38243 0 -2.03435 60.47569 -3.25583 2.10945 -59.808 20.06057 -3.02734 -7.92983 -21.98869 -23.57421 135.42577 77.34992 -15.34563 -2.27024 -14.01371 -4.89807 5.25878 124.61383 -76.25379 -51.14905 3.29478 118.58087 12.86133 -27.48702 -66.28454 -25.2442 -2.77852 3.75855 91.94895 -9.27295 -15.90974 -11.77423 -25.9285 2.12907 0.08951
0.60585 0.05799 0.09727 184.27892 0 -2.03965 60.47569 -3.56821 1.41336 -58.51847 19.06973 -3.295 -9.19352 -21.97409 -23.26864 135.70894 78.92838 -13.72932 -2.82488 -15.5866 -4.90414 5.38625 125.05487 -75.75621 -50.81996 3.25973 118.46934 12.86336 -27.61097 -66.17102 -25.22816 -2.74798 3.47871 91.94925 -9.20621 -16.06989 -11.78918 -25.90385 1.48649 0.12622
0.60635 0.05792 0.09742 184.14158 0 -2.00373 60.47569 -3.8199 0.84123 -57.23002 18.09271 -3.47256 -10.4998 -21.86229 -23.01224 136.06526 80.64282 -12.33254 -3.53449 -17.14894 -4.8884 5.52084 125.63077 -75.64811 -50.47664 3.24577 118.34997 12.86713 -27.77674 -66.03723 -25.27392 -2.72761 3.21329 91.96431 -9.11528 -16.25536 -11.81261 -25.87451 0.68264 0.16674
0.6068 0.05795 0.09753 184.02141 0 -1.98537 60.47569 -4.09736 0.21423 -55.94903 17.1112 -3.68088 -11.78374 -21.78892 -22.73278 136.38044 82.26621 -10.84683 -4.17442 -18.70092 -4.89713 5.66448 126.13889 -75.38867 -50.13278 3.20597 118.23404 12.87002 -27.92104 -65.91333 -25.28808 -2.70175 2.94118 91.97245 -9.0359 -16.42469 -11.83208 -25.84659 -0.00291 0.20381
0.60727 0.05797 0.09767 183.89393 0 -1.97338 60.47569 -4.38298 -0.42785 -54.62803 16.11681 -3.929 -13.0901 -21.74027 -22.45809 136.7295 84.03104 -9.30399 -4.81521 -20.32757 -4.85067 5.75975 126.67452 -75.02521 -49.81352 3.22998 118.1176 12.87326 -28.07597 -65.78612 -25.31488 -2.67869 2.66712 91.98147 -8.95471 -16.61668 -11.8529 -25.82146 -0.87482 0.24776
0.60773 0.05795 0.09776 183.77372 0 -1.93763 60.47569 -4.63646 -1.00371 -53.39532 15.15608 -4.07507 -14.35267 -21.61689 -22.18427 137.0248 85.52379 -7.9377 -5.48777 -21.78935 -4.90732 5.95401 127.18416 -74.96025 -49.44502 3.13165 118.00157 12.87619 -28.21801 -65.6619 -25.33053 -2.65277 2.40178 91.99183 -8.87151 -16.76556 -11.87161 -25.79039 -1.40147 0.27786
0.60815 0.05792 0.09766 183.67954 0 -1.84815 60.47569 -4.82266 -1.45171 -52.37948 14.26674 -3.94908 -15.52485 -21.31147 -21.90333 137.15838 86.2571 -6.98877 -6.23154 -22.83222 -5.30833 6.44669 127.59677 -75.73894 -48.90034 2.64353 117.87866 12.87789 -28.32197 -65.54213 -25.30351 -2.61379 2.15454 92.00681 -8.78637 -16.79925 -11.8949 -25.73279 -0.89545 0.27649
0.60856 0.05785 0.09751 183.59418 0 -1.7357 60.47569 -4.97734 -1.83225 -51.45836 13.415 -3.72639 -16.64213 -20.93474 -21.62081 137.23461 86.69809 -6.21192 -6.99777 -23.7023 -5.80468 7.03407 127.9767 -76.78635 -48.31418 2.03977 117.75833 12.8792 -28.41036 -65.42783 -25.26227 -2.57213 1.91683 92.02197 -8.70041 -16.78712 -11.91383 -25.67118 -0.04369 0.26015
0.60897 0.05777 0.0974 183.50624 0 -1.63235 60.47569 -5.14217 -2.22595 -50.51151 12.55806 -3.55598 -17.75792 -20.5893 -21.33721 137.33388 87.26324 -5.37175 -7.73926 -24.62811 -6.22011 7.55972 128.36726 -77.6334 -47.77675 1.52046 117.64331 12.88063 -28.50058 -65.31647 -25.22656 -2.53362 1.67607 92.03398 -8.61619 -16.78824 -11.92615 -25.61889 0.62345 0.24523
0.60939 0.05779 0.09723 183.41118 0 -1.53309 60.47569 -5.3227 -2.68739 -49.49011 11.65008 -3.34597 -18.99046 -20.2422 -21.06318 137.44785 87.8989 -4.48665 -8.54711 -25.64937 -6.78881 8.16252 128.78245 -78.8147 -47.11566 0.86966 117.50051 12.88237 -28.61346 -65.18075 -25.19944 -2.48755 1.4284 92.05894 -8.5252 -16.81964 -11.97354 -25.53554 1.40038 0.2515
0.6098 0.05761 0.09716 183.33336 0 -1.42055 60.47569 -5.46361 -2.99572 -48.64822 10.85875 -3.19819 -19.9618 -19.88665 -20.76789 137.51739 88.28029 -3.72011 -9.22062 -26.43158 -7.06712 8.62957 129.13417 -79.37056 -46.69871 0.46195 117.41647 12.88336 -28.67607 -65.09826 -25.14703 -2.45617 1.19968 92.05744 -8.44862 -16.78006 -11.94862 -25.51505 2.03364 0.21209
0.61018 0.0569 0.09738 183.30226 0 -1.2758 60.47569 -5.50479 -2.87734 -48.26565 10.36771 -3.23334 -20.25968 -19.49401 -20.41689 137.47078 88.34627 -3.34932 -9.51053 -26.58777 -6.46911 8.67656 129.33898 -78.02834 -47.0003 0.78019 117.49294 12.88234 -28.59336 -65.15378 -25.056 -2.46831 1.00001 91.97713 -8.41043 -16.52602 -11.70895 -25.67696 2.1794 0.03221
0.61054 0.05601 0.0977 183.28814 0 -1.1189 60.47569 -5.50714 -2.61166 -48.06383 9.99546 -3.33732 -20.28819 -19.10199 -20.04395 137.38215 88.11211 -3.06958 -9.66413 -26.50967 -5.58519 8.58775 129.47545 -76.06484 -47.54388 1.34218 117.62896 12.88059 -28.46215 -65.26426 -24.93487 -2.49486 0.82303 91.8712 -8.38712 -16.20684 -11.39962 -25.9007 2.17057 -0.19012
